Coordinates
version=1
nRows=7
nColumns=63
inDegrees=yes

Units are S.I. units (second, meters, Newtons, ...)
If the header above contains a line with 'inDegrees', this indicates whether rotational values are in degrees (yes) or radians (no).

endheader
time	pelvis_tilt	pelvis_list	pelvis_rotation	pelvis_tx	pelvis_ty	pelvis_tz	hip_flexion_r	hip_adduction_r	hip_rotation_r	knee_angle_r	knee_angle_r_beta	ankle_angle_r	subtalar_angle_r	mtp_angle_r	hip_flexion_l	hip_adduction_l	hip_rotation_l	knee_angle_l	knee_angle_l_beta	ankle_angle_l	subtalar_angle_l	mtp_angle_l	L5_S1_Flex_Ext	L5_S1_Lat_Bending	L5_S1_axial_rotation	L4_L5_Flex_Ext	L4_L5_Lat_Bending	L4_L5_axial_rotation	L3_L4_Flex_Ext	L3_L4_Lat_Bending	L3_L4_axial_rotation	L2_L3_Flex_Ext	L2_L3_Lat_Bending	L2_L3_axial_rotation	L1_L2_Flex_Ext	L1_L2_Lat_Bending	L1_L2_axial_rotation	L1_T12_Flex_Ext	L1_T12_Lat_Bending	L1_T12_axial_rotation	Abs_r3	Abs_r2	Abs_r1	Abs_t1	Abs_t2	neck_flexion	neck_bending	neck_rotation	arm_flex_r	arm_add_r	arm_rot_r	elbow_flex_r	pro_sup_r	wrist_flex_r	wrist_dev_r	arm_flex_l	arm_add_l	arm_rot_l	elbow_flex_l	pro_sup_l	wrist_flex_l	wrist_dev_l
      5.48936170	     -3.16300592	     -2.73508699	     92.35309487	      0.24785238	      1.00024178	      0.47724569	     -1.11126082	     -2.03869973	     -8.23695347	      5.30904820	      0.09266037	     20.87898350	     10.49189157	      0.00000000	     -1.18853811	      1.96996474	     -9.72198864	      0.66577413	      0.01161995	     22.30578366	      7.82711567	      0.00000000	     -0.02737547	      3.69097684	     65.63374590	     -0.05083898	      4.90899919	     69.73585502	     -0.04497516	      8.97424108	     69.73585502	     -0.03128742	      8.97424108	     57.42952766	     -0.02542086	      7.52663997	     53.32741855	     -0.01564234	      5.71732312	     49.22530943	     -0.19554023	     41.75306817	    365.03520459	      0.00000000	      0.00000000	     20.67999798	      3.10957426	      0.52608553	      3.68221137	    -24.69447059	     33.31423632	     24.51551494	     85.27209291	    -18.23119046	      5.01711192	      6.38275130	    -25.18176945	    140.97798194	      4.74287221	     20.88003462	     -4.70180041	     -7.22028404
      5.51063830	     -3.13652882	     -2.86320199	     92.51157094	      0.24727488	      1.00058323	      0.47826083	     -0.98038339	     -1.99870425	     -7.92530687	      5.01505901	      0.08752929	     21.02518025	     10.73790797	      0.00000000	     -0.94784837	      1.97633218	     -9.27998595	      0.69518840	      0.01213333	     22.44589094	      8.04902090	      0.00000000	     -0.02608197	      3.74877506	     65.44304971	     -0.04843684	      4.98587082	     69.53324032	     -0.04285008	      9.11477167	     69.53324032	     -0.02980909	      9.11477167	     57.26266850	     -0.02421972	      7.64450209	     53.17247789	     -0.01490324	      5.80685256	     49.08228728	     -0.18630094	     42.40689319	    363.97460956	      0.00000000	      0.00000000	     21.11744935	      4.25017357	      1.23959358	      4.22696163	    -26.52295015	     33.45701999	     23.50298531	     84.64797212	    -16.13791640	      7.12736212	      4.91505696	    -28.97777504	    138.28578542	      6.09891733	     19.23698927	     -4.35422327	     -6.38505830
      5.53191489	     -3.20468868	     -2.96293319	     92.65428438	      0.24629144	      1.00127350	      0.47957211	     -0.82627594	     -2.13536949	     -8.30174471	      4.84798360	      0.08461328	     21.15889078	     11.81679358	      0.00000000	     -0.75176495	      2.12031060	     -8.53771571	      0.74324586	      0.01297209	     22.20755915	      7.72278566	      0.00000000	     -0.02080381	      3.76107140	     65.23871441	     -0.03863475	      5.00222496	     69.31613406	     -0.03417858	      9.14466900	     69.31613406	     -0.02377667	      9.14466900	     57.08387511	     -0.01931842	      7.66957680	     53.00645546	     -0.01188730	      5.82589960	     48.92903581	     -0.14859952	     42.54599188	    362.83815795	      0.00000000	      0.00000000	     21.42702847	      5.29074117	      2.56886843	      5.79519230	    -28.25428499	     37.68899029	     21.07466765	     78.62398710	    -14.49712973	      8.24301624	      2.77796484	    -32.76748138	    122.04747834	      7.29448245	     36.03260728	     -4.95783162	     -4.70328889
      5.55319149	     -3.25313825	     -3.04980749	     92.71087840	      0.24520874	      1.00176203	      0.48064710	     -0.64772762	     -2.28332472	     -8.76956386	      4.86812265	      0.08496477	     21.29688445	     12.91629272	      0.00000000	     -0.60544572	      2.25205597	     -8.20650578	      0.81547096	      0.01423265	     21.86809496	      7.72876672	      0.00000000	     -0.01872234	      3.67716105	     65.20581486	     -0.03476925	      4.89062420	     69.28117828	     -0.03075892	      8.94064938	     69.28117828	     -0.02139776	      8.94064938	     57.05508800	     -0.01738556	      7.49846681	     52.97972457	     -0.01069794	      5.69592247	     48.90436114	     -0.13373177	     41.59678122	    362.65518048	      0.00000000	      0.00000000	     21.63737464	      5.53878316	      3.56877535	      5.75825147	    -29.66645292	     34.42668897	     19.54421501	     72.53543458	    -12.12408285	      9.94594385	      2.64038796	    -35.67267178	    127.63334694	      8.23354179	     41.97066548	     -5.14815100	     -1.72693439
      5.57446809	     -3.19713932	     -2.97792316	     92.83549709	      0.24399185	      1.00263822	      0.48219426	     -0.51527812	     -2.37884996	    -10.24446652	      5.16539675	      0.09015318	     21.38557396	     14.91560903	      0.00000000	     -0.59336576	      2.27992833	     -7.16651683	      0.89765376	      0.01566701	     21.14380377	      6.62000169	      0.00000000	     -0.01641188	      3.49614392	     65.13880830	     -0.03047849	      4.64987141	     69.20998382	     -0.02696307	      8.50052432	     69.20998382	     -0.01875713	      8.50052432	     56.99645726	     -0.01524007	      7.12933668	     52.92528175	     -0.00937775	      5.41552693	     48.85410623	     -0.11722839	     39.54907922	    362.28251013	      0.00000000	      0.00000000	     21.38272006	      5.80861343	      4.39871480	     12.53836958	    -31.08756278	     88.00329292	     11.06800356	     11.93623529	     -6.81261806	      4.41378604	      3.99108974	    -36.60934986	    161.58146611	      9.48429690	     29.53623424	     -6.15858375	      1.97862833
      5.59574468	     -3.32059139	     -3.14387649	     92.87874405	      0.24217209	      1.00249135	      0.48320629	     -0.17649704	     -2.69195901	    -10.95814724	      5.46487768	      0.09538011	     21.56514732	     15.90798732	      0.00000000	     -0.37471469	      2.53482840	     -6.97458874	      1.00090131	      0.01746902	     20.68510955	      6.51607155	      0.00000000	     -0.01554023	      3.44096530	     65.16173235	     -0.02885977	      4.57648386	     69.23434062	     -0.02553105	      8.36636304	     69.23434062	     -0.01776093	      8.36636304	     57.01651580	     -0.01443066	      7.01681645	     52.94390753	     -0.00887969	      5.33005526	     48.87129926	     -0.11100233	     38.92488772	    362.41000680	      0.00000000	      0.00000000	     21.76233460	      5.53864839	      4.50378079	     11.84741412	    -33.53118704	     81.80277857	     11.99411526	      7.81063525	     -6.51672559	      6.05966754	      3.55225669	    -37.72049647	    171.65631626	     10.25438123	     37.96568684	     -7.37650165	      6.78227122
      5.61702128	     -3.40395010	     -3.31210868	     92.95276131	      0.24000126	      1.00226018	      0.48428568	      0.16750120	     -2.97643568	    -11.45302424	      5.76800349	      0.10067065	     21.78171707	     16.49279619	      0.00000000	     -0.14748544	      2.78274692	     -6.13310064	      1.11040943	      0.01938030	     20.16878126	      5.28457312	      0.00000000	     -0.01432219	      3.28106777	     65.22277332	     -0.02659774	      4.36382014	     69.29919665	     -0.02352992	      7.97758819	     69.29919665	     -0.01636883	      7.97758819	     57.06992665	     -0.01329958	      6.69075341	     52.99350332	     -0.00818370	      5.08237398	     48.91707999	     -0.10230196	     37.11609488	    362.74949837	      0.00000000	      0.00000000	     22.27645254	      5.06580359	      4.85673864	     10.59629830	    -35.70669735	     70.06110411	     13.01271733	     12.82303084	     -7.12667383	      6.69340046	      2.86979493	    -37.24887564	    199.04615257	     10.76040602	     17.54437481	     -8.16037006	      9.48879479
